<?xml version="1.0" encoding="UTF-8"?>
<svg id="Layer_2" data-name="Layer 2" xmlns="http://www.w3.org/2000/svg" viewBox="0 0 33 33.06">
  <defs>
    <style>
      .cls-1 {
        fill: #000;
        stroke-width: 0px;
      }
    </style>
  </defs>
  <g id="Layer_1-2" data-name="Layer 1">
    <g>
      <path class="cls-1" d="M17.37,16.46c.21.06.42.13.63.19.42.35.81.75,1.27,1.04,3.27,2.06,6.78,2.63,10.54,1.71l-.04.03.02.04c0,2.12,0,4.24.02,6.36,0,.31.11.61.17.92,0,.09-.01.19-.02.28-.83.79-1.66,1.58-2.49,2.37-.11,0-.22,0-.33,0-.19-.06-.38-.17-.56-.17-2.18,0-4.37,0-6.55.01-.23-.06-.46-.12-.69-.18,3.51-.67,6.31-2.43,8.56-5.53-4.02.26-7.48-.66-10.66-2.65l-.02-.06c.05-1.46.1-2.92.16-4.38Z"/>
      <path class="cls-1" d="M17,15.77s0,.09.02.14c.05.5-.25.55-.65.55-1.25-.02-2.51-.02-3.76-.02-.71-1.36-1.42-2.72-2.12-4.08.12,0,.23,0,.35,0,.87,0,1.74-.74,1.89-1.61.1-.57-.5-1.64-1.18-1.78-.59-.13-1.24.02-1.87.05-.04-.01-.08-.03-.12-.04-.05-1.21-.11-2.41-.17-3.67-2.02,1.26-3.17,2.75-4.85,6.16-.05-.28-.14-.55-.14-.83-.02-1.58,0-3.15-.02-4.73,0-.27-.11-.55-.16-.82,0-.07,0-.14-.01-.21.38-.4.76-.8,1.15-1.2.09,0,.19-.01.28-.02.3.06.61.16.91.17,2.29.02,4.58.02,6.87.03l.05-.02c-.05.35-.1.7-.14,1.05-.43,4.18.69,7.85,3.65,10.89Z"/>
      <path class="cls-1" d="M4.22,4.88c0,.07,0,.14.01.21.01,2.39.03,4.78.04,7.17-.18,1.4-.36,2.8-.54,4.21-1.24,0-2.49-.02-3.73-.03-.07-4.39,1.26-8.27,4.22-11.56Z"/>
      <path class="cls-1" d="M6.59,29.39c-.78-.73-1.56-1.46-2.35-2.19,0-.09-.01-.19-.02-.28.06-.27.16-.55.16-.82.02-1.46,0-2.92.02-4.38,0-.39.09-.79.15-1.18,1.85,4.67,5.19,7.55,10.14,8.54-.31.05-.62.15-.92.15-1.98.02-3.96,0-5.94.02-.31,0-.62.1-.92.16h-.31Z"/>
      <path class="cls-1" d="M4.23,26.93c0,.09.01.19.02.28-1.94-1.97-3.07-4.38-3.73-7.02-.29-1.15-.33-2.36-.49-3.55,1.24-.01,2.47-.02,3.71-.04.16.84.32,1.68.48,2.51.04.31.08.63.11.94-.03,2.29-.06,4.58-.09,6.87Z"/>
      <path class="cls-1" d="M6.59,29.39c.1,0,.21,0,.31.01,2.53,0,5.05,0,7.58-.01.31,0,.62-.09.93-.13.53,0,1.06,0,1.59,0l.02.07c0,.08,0,.16,0,.24,0,1.07,0,2.14,0,3.21,0,.09,0,.18,0,.28-3.7.06-7-1.14-10.02-3.21-.16-.11-.27-.3-.4-.45Z"/>
      <path class="cls-1" d="M17.01,33.06c0-.09,0-.18,0-.28,0-1.07,0-2.14,0-3.21,0-.08,0-.16,0-.24.06-.03.12-.06.18-.09.42,0,.83.01,1.25.02l1.59.12,7.12.03c.11,0,.22,0,.33,0-2.05,1.82-4.49,2.82-7.14,3.33-1.09.21-2.21.22-3.32.32Z"/>
      <path class="cls-1" d="M5.65,3.67c-.09,0-.19.01-.28.02C7.01,1.97,9.04.88,11.21.02c.16-.06.45.05.6.18.42.37.75.86,1.21,1.17.94.64.94,1.42.48,2.32l-.05-.02c-2.6,0-5.19,0-7.79.01Z"/>
      <path class="cls-1" d="M29.96,27.03c0-.09.01-.19.02-.28,0-2.44,0-4.87-.01-7.31.01-.04.02-.08.02-.13.56-.23.99-.09,1.36.39.23.3.5.6.81.81.94.64,1.08,1.44.49,2.36-.88,1.4-1.79,2.77-2.69,4.15Z"/>
      <path class="cls-1" d="M3.74,16.61c-1.24.01-2.47.02-3.71.04,0-.07-.02-.14-.02-.2,1.24,0,2.49.02,3.73.03,0,0,.04.07.04.07l-.04.07Z"/>
      <path class="cls-1" d="M12.61,16.44c1.25,0,2.51,0,3.76.02.4,0,.7-.04.65-.55.12.18.23.37.35.55-.05,1.46-.1,2.92-.16,4.38-.06,0-.11-.01-.17-.03-.08-.08-.17-.16-.25-.24.1-1.28.21-2.57.32-3.95-1.08,0-1.93-.02-2.78,0-.48.02-.95.13-1.43.2-.09-.08-.17-.15-.26-.23-.02-.05-.04-.11-.04-.17Z"/>
      <path class="cls-1" d="M29.79,19.48c.05-.03.11-.05.17-.04,0,2.44,0,4.87.01,7.31-.06-.31-.16-.61-.17-.92-.02-2.12-.01-4.24-.02-6.36Z"/>
      <path class="cls-1" d="M27.14,29.41c-2.37,0-4.74-.02-7.12-.03,0-.04,0-.08,0-.12,2.18,0,4.37-.02,6.55-.01.19,0,.38.11.56.17Z"/>
      <path class="cls-1" d="M20.02,29.26s0,.08,0,.12c-.53-.04-1.06-.08-1.59-.12.3-.06.59-.12.89-.18.23.06.46.12.69.18Z"/>
      <path class="cls-1" d="M9.68,9.02c.62-.03,1.28-.18,1.87-.05.68.14,1.28,1.22,1.18,1.78-.15.87-1.02,1.61-1.89,1.61-.12,0-.23,0-.35,0l-.06.02c-.25-1.12-.49-2.24-.74-3.36Z"/>
      <path class="cls-1" d="M13.44,3.65c0,.07,0,.14,0,.2-2.29,0-4.58,0-6.87-.03-.31,0-.61-.11-.91-.17,2.6,0,5.19,0,7.79-.01Z"/>
      <path class="cls-1" d="M4.56,11.47c-.09.26-.19.53-.28.79-.01-2.39-.03-4.78-.04-7.17.06.27.16.55.16.82.02,1.58,0,3.15.02,4.73,0,.28.09.55.14.83Z"/>
      <path class="cls-1" d="M14.69,29.08c.24.06.48.12.72.18-.31.05-.62.13-.93.13-2.53.01-5.05.01-7.58.01.31-.05.62-.15.92-.16,1.98-.02,3.96,0,5.94-.02.31,0,.62-.1.92-.15Z"/>
      <path class="cls-1" d="M4.32,20.06c.08.16.16.32.23.48-.05.39-.14.79-.15,1.18-.02,1.46,0,2.92-.02,4.38,0,.27-.11.55-.16.82.03-2.29.06-4.58.09-6.87Z"/>
      <path class="cls-1" d="M17.01,29.57c0,1.07,0,2.14,0,3.21,0-1.07,0-2.14,0-3.21Z"/>
      <path class="cls-1" d="M16.79,20.57c-1.51-1.03-2.84-2.24-3.88-3.74.47-.07.95-.18,1.43-.2.85-.03,1.7,0,2.78,0-.11,1.38-.22,2.66-.32,3.95Z"/>
    </g>
  </g>
</svg>