<?xml version="1.0" encoding="UTF-8"?>
<svg id="Layer_2" data-name="Layer 2" xmlns="http://www.w3.org/2000/svg" viewBox="0 0 30 30.03">
  <defs>
    <style>
      .cls-1 {
        fill: #000;
        stroke-width: 0px;
      }
    </style>
  </defs>
  <g id="Layer_1-2" data-name="Layer 1">
    <g>
      <path class="cls-1" d="M2.95,27.07c1.98,0,3.9,0,5.82,0,.19,0,.38,0,.58,0,.8.05,1.42.7,1.42,1.47,0,.77-.62,1.46-1.42,1.47-2.64.02-5.28.02-7.92,0-.83,0-1.41-.67-1.42-1.52,0-2.57,0-5.13,0-7.7,0-.89.6-1.54,1.42-1.55.85-.02,1.49.6,1.51,1.52.02,1.09,0,2.18,0,3.27,0,.99,0,1.99,0,3.03Z"/>
      <path class="cls-1" d="M27.05,27.07c0-1.53,0-3.02,0-4.51,0-.59-.01-1.19,0-1.78.03-.92.65-1.54,1.5-1.53.84.01,1.44.66,1.44,1.58,0,2.53,0,5.07,0,7.6,0,.97-.62,1.59-1.59,1.59-2.53,0-5.06,0-7.59,0-.91,0-1.57-.63-1.58-1.46,0-.85.67-1.49,1.6-1.49,1.91,0,3.81,0,5.72,0h.5Z"/>
      <path class="cls-1" d="M2.95,2.96c0,2.11,0,4.15,0,6.19,0,.97-.59,1.62-1.44,1.64-.79.01-1.48-.59-1.49-1.39C0,6.73,0,4.07.01,1.41.02.64.66.02,1.45.01c2.63-.02,5.25-.02,7.88,0,.83,0,1.46.71,1.44,1.5-.02.8-.66,1.44-1.5,1.44-1.92.01-3.84,0-5.76,0-.17,0-.34,0-.56,0Z"/>
      <path class="cls-1" d="M27.05,2.96h-.51c-1.89,0-3.78,0-5.67,0-.97,0-1.65-.63-1.64-1.5.01-.85.69-1.46,1.63-1.46,2.5,0,4.99,0,7.49,0,1.04,0,1.64.6,1.64,1.64,0,2.5,0,5,0,7.51,0,.96-.59,1.62-1.45,1.63-.87.01-1.48-.62-1.49-1.59-.02-2.05,0-4.11,0-6.23Z"/>
    </g>
  </g>
</svg>