<?xml version="1.0" encoding="UTF-8"?>
<svg id="Layer_2" data-name="Layer 2" xmlns="http://www.w3.org/2000/svg" viewBox="0 0 30 37.61">
  <defs>
    <style>
      .cls-1 {
        fill: #020202;
      }

      .cls-1, .cls-2 {
        stroke-width: 0px;
      }

      .cls-2 {
        fill: #010101;
      }
    </style>
  </defs>
  <g id="Layer_1-2" data-name="Layer 1">
    <g>
      <path class="cls-1" d="M0,15.5C0,7.7,5.21,1.53,12.49.23c7.75-1.39,15.42,3.74,17.14,11.43.83,3.68.23,7.17-1.29,10.55-1.42,3.17-3.42,5.95-5.69,8.55-1.98,2.27-4.15,4.36-6.48,6.27-.1.08-.2.16-.31.24-.62.46-1.13.45-1.74-.03-2.5-2-4.79-4.22-6.89-6.64-2-2.31-3.78-4.77-5.14-7.52C.84,20.55.02,17.9,0,15.5ZM14.95,34.78c1.87-1.57,3.55-3.17,5.11-4.89,2.49-2.74,4.69-5.68,6.16-9.11,1.18-2.75,1.64-5.58.97-8.55-1.22-5.42-6.08-9.51-11.6-9.7-4.1-.14-7.54,1.35-10.19,4.5-2.2,2.62-3.14,5.69-2.85,9.11.2,2.3,1,4.4,2.07,6.42,1.67,3.15,3.88,5.9,6.36,8.42,1.28,1.3,2.63,2.52,3.96,3.79Z"/>
      <path class="cls-2" d="M15.01,16.3c-2.08,0-4.16,0-6.25,0-.66,0-1.19-.49-1.26-1.11-.07-.62.32-1.19.94-1.35.11-.03.23-.04.35-.04,4.14,0,8.28,0,12.41,0,.69,0,1.22.47,1.29,1.11.07.63-.35,1.22-.98,1.36-.15.03-.31.03-.47.03-2.02,0-4.03,0-6.05,0Z"/>
    </g>
  </g>
</svg>